<svg version="1.1" viewBox="0.0 0.0 645.49343832021 531.4278215223097" fill="none" stroke="none" stroke-linecap="square" stroke-miterlimit="10" xmlns:xlink="http://www.w3.org/1999/xlink" xmlns="http://www.w3.org/2000/svg"><clipPath id="p.0"><path d="m0 0l645.4934 0l0 531.4278l-645.4934 0l0 -531.4278z" clip-rule="nonzero"/></clipPath><g clip-path="url(#p.0)"><path fill="#000000" fill-opacity="0.0" d="m0 0l645.4934 0l0 531.4278l-645.4934 0z" fill-rule="evenodd"/><path fill="#cfe2f3" d="m96.461945 78.85958l452.56693 0l0 77.07087l-452.56693 0z" fill-rule="evenodd"/><path stroke="#000000" stroke-width="1.0" stroke-linejoin="round" stroke-linecap="butt" d="m96.461945 78.85958l452.56693 0l0 77.07087l-452.56693 0z" fill-rule="evenodd"/><path fill="#cfe2f3" d="m96.461945 172.16011l452.56693 0l0 77.07086l-452.56693 0z" fill-rule="evenodd"/><path stroke="#000000" stroke-width="1.0" stroke-linejoin="round" stroke-linecap="butt" d="m96.461945 172.16011l452.56693 0l0 77.07086l-452.56693 0z" fill-rule="evenodd"/><path fill="#cfe2f3" d="m96.461945 273.8281l452.56693 0l0 77.07086l-452.56693 0z" fill-rule="evenodd"/><path stroke="#000000" stroke-width="1.0" stroke-linejoin="round" stroke-linecap="butt" d="m96.461945 273.8281l452.56693 0l0 77.07086l-452.56693 0z" fill-rule="evenodd"/><path fill="#cfe2f3" d="m96.461945 375.49475l452.56693 0l0 77.07086l-452.56693 0z" fill-rule="evenodd"/><path stroke="#000000" stroke-width="1.0" stroke-linejoin="round" stroke-linecap="butt" d="m96.461945 375.49475l452.56693 0l0 77.07086l-452.56693 0z" fill-rule="evenodd"/><path fill="#efefef" d="m223.20473 84.42126l135.08662 0l0 65.95275l-135.08662 0z" fill-rule="evenodd"/><path stroke="#000000" stroke-width="1.0" stroke-linejoin="round" stroke-linecap="butt" d="m223.20473 84.42126l135.08662 0l0 65.95275l-135.08662 0z" fill-rule="evenodd"/><path fill="#000000" fill-opacity="0.0" d="m241.48294 95.54724l0 38.92914" fill-rule="evenodd"/><path stroke="#000000" stroke-width="1.0" stroke-linejoin="round" stroke-linecap="butt" d="m241.48294 95.54724l0 38.92914" fill-rule="evenodd"/><path fill="#000000" fill-opacity="0.0" d="m241.48294 134.47638l66.74014 0" fill-rule="evenodd"/><path stroke="#000000" stroke-width="1.0" stroke-linejoin="round" stroke-linecap="butt" d="m241.48294 134.47638l66.74014 0" fill-rule="evenodd"/><path fill="#000000" fill-opacity="0.0" d="m247.04724 125.74705c0.9269562 -3.973755 3.9724426 -23.444885 5.561676 -23.842522c1.5892487 -0.3976364 1.722229 19.73491 3.973755 21.456696c2.2515259 1.7217865 5.6942444 -10.06649 9.535431 -11.125984c3.841217 -1.059494 10.332916 2.7821503 13.51181 4.7690277c3.1789246 1.9868774 2.118103 8.344269 5.561676 7.1522293c3.443573 -1.1920395 12.58313 -11.92038 15.099762 -14.304459" fill-rule="evenodd"/><path stroke="#000000" stroke-width="1.0" stroke-linejoin="round" stroke-linecap="butt" d="m247.04724 125.74705c0.9269562 -3.973755 3.9724426 -23.444885 5.561676 -23.842522c1.5892487 -0.3976364 1.722229 19.73491 3.973755 21.456696c2.2515259 1.7217865 5.6942444 -10.06649 9.535431 -11.125984c3.841217 -1.059494 10.332916 2.7821503 13.51181 4.7690277c3.1789246 1.9868774 2.118103 8.344269 5.561676 7.1522293c3.443573 -1.1920395 12.58313 -11.92038 15.099762 -14.304459" fill-rule="evenodd"/><path fill="#efefef" d="m397.4567 84.42126l135.08664 0l0 65.95275l-135.08664 0z" fill-rule="evenodd"/><path stroke="#000000" stroke-width="1.0" stroke-linejoin="round" stroke-linecap="butt" d="m397.4567 84.42126l135.08664 0l0 65.95275l-135.08664 0z" fill-rule="evenodd"/><path fill="#000000" fill-opacity="0.0" d="m415.7349 95.54724l0 38.92914" fill-rule="evenodd"/><path stroke="#000000" stroke-width="1.0" stroke-linejoin="round" stroke-linecap="butt" d="m415.7349 95.54724l0 38.92914" fill-rule="evenodd"/><path fill="#000000" fill-opacity="0.0" d="m415.7349 134.47638l66.74017 0" fill-rule="evenodd"/><path stroke="#000000" stroke-width="1.0" stroke-linejoin="round" stroke-linecap="butt" d="m415.7349 134.47638l66.74017 0" fill-rule="evenodd"/><path fill="#000000" fill-opacity="0.0" d="m421.9895 121.77821c2.9142456 -0.529747 13.114624 0 17.485565 -3.1784744c4.370941 -3.178482 6.488617 -15.892387 8.740143 -15.892387c2.2515564 0 3.444458 11.786522 4.769043 15.892387c1.324585 4.105858 1.1915894 8.610237 3.1784668 8.742783c1.9868774 0.13254547 5.8289795 -5.6959763 8.742798 -7.94751c2.9138184 -2.2515335 7.2834473 -4.634735 8.740143 -5.561676" fill-rule="evenodd"/><path stroke="#000000" stroke-width="1.0" stroke-linejoin="round" stroke-linecap="butt" d="m421.9895 121.77821c2.9142456 -0.529747 13.114624 0 17.485565 -3.1784744c4.370941 -3.178482 6.488617 -15.892387 8.740143 -15.892387c2.2515564 0 3.444458 11.786522 4.769043 15.892387c1.324585 4.105858 1.1915894 8.610237 3.1784668 8.742783c1.9868774 0.13254547 5.8289795 -5.6959763 8.742798 -7.94751c2.9138184 -2.2515335 7.2834473 -4.634735 8.740143 -5.561676" fill-rule="evenodd"/><path fill="#efefef" d="m223.20473 179.12599l135.08662 0l0 65.95274l-135.08662 0z" fill-rule="evenodd"/><path stroke="#000000" stroke-width="1.0" stroke-linejoin="round" stroke-linecap="butt" d="m223.20473 179.12599l135.08662 0l0 65.95274l-135.08662 0z" fill-rule="evenodd"/><path fill="#000000" fill-opacity="0.0" d="m241.48294 190.25197l0 38.92914" fill-rule="evenodd"/><path stroke="#000000" stroke-width="1.0" stroke-linejoin="round" stroke-linecap="butt" d="m241.48294 190.25197l0 38.92914" fill-rule="evenodd"/><path fill="#000000" fill-opacity="0.0" d="m241.48294 229.1811l66.74014 0" fill-rule="evenodd"/><path stroke="#000000" stroke-width="1.0" stroke-linejoin="round" stroke-linecap="butt" d="m241.48294 229.1811l66.74014 0" fill-rule="evenodd"/><path fill="#000000" fill-opacity="0.0" d="m247.04724 220.45177c0.9269562 -3.973755 3.9724426 -23.44487 5.561676 -23.842514c1.5892487 -0.39764404 1.722229 19.73491 3.973755 21.456696c2.2515259 1.7217865 5.6942444 -10.066498 9.535431 -11.125992c3.841217 -1.059494 10.332916 2.7821503 13.51181 4.7690277c3.1789246 1.9868774 2.118103 8.344269 5.561676 7.152237c3.443573 -1.1920319 12.58313 -11.92038 15.099762 -14.304459" fill-rule="evenodd"/><path stroke="#000000" stroke-width="1.0" stroke-linejoin="round" stroke-linecap="butt" d="m247.04724 220.45177c0.9269562 -3.973755 3.9724426 -23.44487 5.561676 -23.842514c1.5892487 -0.39764404 1.722229 19.73491 3.973755 21.456696c2.2515259 1.7217865 5.6942444 -10.066498 9.535431 -11.125992c3.841217 -1.059494 10.332916 2.7821503 13.51181 4.7690277c3.1789246 1.9868774 2.118103 8.344269 5.561676 7.152237c3.443573 -1.1920319 12.58313 -11.92038 15.099762 -14.304459" fill-rule="evenodd"/><path fill="#efefef" d="m223.20473 279.38846l135.08662 0l0 65.95276l-135.08662 0z" fill-rule="evenodd"/><path stroke="#000000" stroke-width="1.0" stroke-linejoin="round" stroke-linecap="butt" d="m223.20473 279.38846l135.08662 0l0 65.95276l-135.08662 0z" fill-rule="evenodd"/><path fill="#000000" fill-opacity="0.0" d="m241.48294 290.51443l0 38.92914" fill-rule="evenodd"/><path stroke="#000000" stroke-width="1.0" stroke-linejoin="round" stroke-linecap="butt" d="m241.48294 290.51443l0 38.92914" fill-rule="evenodd"/><path fill="#000000" fill-opacity="0.0" d="m241.48294 329.44357l66.74014 0" fill-rule="evenodd"/><path stroke="#000000" stroke-width="1.0" stroke-linejoin="round" stroke-linecap="butt" d="m241.48294 329.44357l66.74014 0" fill-rule="evenodd"/><path fill="#000000" fill-opacity="0.0" d="m247.04724 320.71423c0.9269562 -3.973755 3.9724426 -23.444885 5.561676 -23.84253c1.5892487 -0.39761353 1.722229 19.734924 3.973755 21.456696c2.2515259 1.7218018 5.6942444 -10.066467 9.535431 -11.125977c3.841217 -1.0594788 10.332916 2.7821655 13.51181 4.769043c3.1789246 1.9868774 2.118103 8.344269 5.561676 7.1522217c3.443573 -1.1920471 12.58313 -11.92038 15.099762 -14.304474" fill-rule="evenodd"/><path stroke="#000000" stroke-width="1.0" stroke-linejoin="round" stroke-linecap="butt" d="m247.04724 320.71423c0.9269562 -3.973755 3.9724426 -23.444885 5.561676 -23.84253c1.5892487 -0.39761353 1.722229 19.734924 3.973755 21.456696c2.2515259 1.7218018 5.6942444 -10.066467 9.535431 -11.125977c3.841217 -1.0594788 10.332916 2.7821655 13.51181 4.769043c3.1789246 1.9868774 2.118103 8.344269 5.561676 7.1522217c3.443573 -1.1920471 12.58313 -11.92038 15.099762 -14.304474" fill-rule="evenodd"/><path fill="#efefef" d="m223.20473 379.6509l135.08662 0l0 65.95276l-135.08662 0z" fill-rule="evenodd"/><path stroke="#000000" stroke-width="1.0" stroke-linejoin="round" stroke-linecap="butt" d="m223.20473 379.6509l135.08662 0l0 65.95276l-135.08662 0z" fill-rule="evenodd"/><path fill="#000000" fill-opacity="0.0" d="m241.48294 390.77692l0 38.929108" fill-rule="evenodd"/><path stroke="#000000" stroke-width="1.0" stroke-linejoin="round" stroke-linecap="butt" d="m241.48294 390.77692l0 38.929108" fill-rule="evenodd"/><path fill="#000000" fill-opacity="0.0" d="m241.48294 429.70602l66.74014 0" fill-rule="evenodd"/><path stroke="#000000" stroke-width="1.0" stroke-linejoin="round" stroke-linecap="butt" d="m241.48294 429.70602l66.74014 0" fill-rule="evenodd"/><path fill="#000000" fill-opacity="0.0" d="m247.04724 420.9767c0.9269562 -3.973755 3.9724426 -23.444885 5.561676 -23.84253c1.5892487 -0.39764404 1.722229 19.734894 3.973755 21.456696c2.2515259 1.7217712 5.6942444 -10.066498 9.535431 -11.125977c3.841217 -1.0595093 10.332916 2.782135 13.51181 4.7690125c3.1789246 1.9868774 2.118103 8.344269 5.561676 7.152252c3.443573 -1.1920471 12.58313 -11.92041 15.099762 -14.304474" fill-rule="evenodd"/><path stroke="#000000" stroke-width="1.0" stroke-linejoin="round" stroke-linecap="butt" d="m247.04724 420.9767c0.9269562 -3.973755 3.9724426 -23.444885 5.561676 -23.84253c1.5892487 -0.39764404 1.722229 19.734894 3.973755 21.456696c2.2515259 1.7217712 5.6942444 -10.066498 9.535431 -11.125977c3.841217 -1.0595093 10.332916 2.782135 13.51181 4.7690125c3.1789246 1.9868774 2.118103 8.344269 5.561676 7.152252c3.443573 -1.1920471 12.58313 -11.92041 15.099762 -14.304474" fill-rule="evenodd"/><path fill="#efefef" d="m397.4567 179.12335l135.08664 0l0 65.95276l-135.08664 0z" fill-rule="evenodd"/><path stroke="#000000" stroke-width="1.0" stroke-linejoin="round" stroke-linecap="butt" d="m397.4567 179.12335l135.08664 0l0 65.95276l-135.08664 0z" fill-rule="evenodd"/><path fill="#000000" fill-opacity="0.0" d="m415.7349 190.24934l0 38.92914" fill-rule="evenodd"/><path stroke="#000000" stroke-width="1.0" stroke-linejoin="round" stroke-linecap="butt" d="m415.7349 190.24934l0 38.92914" fill-rule="evenodd"/><path fill="#000000" fill-opacity="0.0" d="m415.7349 229.17848l66.74017 0" fill-rule="evenodd"/><path stroke="#000000" stroke-width="1.0" stroke-linejoin="round" stroke-linecap="butt" d="m415.7349 229.17848l66.74017 0" fill-rule="evenodd"/><path fill="#000000" fill-opacity="0.0" d="m421.9895 216.48032c2.9142456 -0.52975464 13.114624 0 17.485565 -3.178482c4.370941 -3.178482 6.488617 -15.89238 8.740143 -15.89238c2.2515564 0 3.444458 11.786514 4.769043 15.89238c1.324585 4.1058655 1.1915894 8.610245 3.1784668 8.742783c1.9868774 0.1325531 5.8289795 -5.6959686 8.742798 -7.94751c2.9138184 -2.2515259 7.2834473 -4.63472 8.740143 -5.561676" fill-rule="evenodd"/><path stroke="#000000" stroke-width="1.0" stroke-linejoin="round" stroke-linecap="butt" d="m421.9895 216.48032c2.9142456 -0.52975464 13.114624 0 17.485565 -3.178482c4.370941 -3.178482 6.488617 -15.89238 8.740143 -15.89238c2.2515564 0 3.444458 11.786514 4.769043 15.89238c1.324585 4.1058655 1.1915894 8.610245 3.1784668 8.742783c1.9868774 0.1325531 5.8289795 -5.6959686 8.742798 -7.94751c2.9138184 -2.2515259 7.2834473 -4.63472 8.740143 -5.561676" fill-rule="evenodd"/><path fill="#efefef" d="m397.4567 279.38715l135.08664 0l0 65.95276l-135.08664 0z" fill-rule="evenodd"/><path stroke="#000000" stroke-width="1.0" stroke-linejoin="round" stroke-linecap="butt" d="m397.4567 279.38715l135.08664 0l0 65.95276l-135.08664 0z" fill-rule="evenodd"/><path fill="#000000" fill-opacity="0.0" d="m415.7349 290.51312l0 38.92914" fill-rule="evenodd"/><path stroke="#000000" stroke-width="1.0" stroke-linejoin="round" stroke-linecap="butt" d="m415.7349 290.51312l0 38.92914" fill-rule="evenodd"/><path fill="#000000" fill-opacity="0.0" d="m415.7349 329.44226l66.74017 0" fill-rule="evenodd"/><path stroke="#000000" stroke-width="1.0" stroke-linejoin="round" stroke-linecap="butt" d="m415.7349 329.44226l66.74017 0" fill-rule="evenodd"/><path fill="#000000" fill-opacity="0.0" d="m421.9895 316.74408c2.9142456 -0.5297241 13.114624 0 17.485565 -3.1784668c4.370941 -3.1784668 6.488617 -15.892395 8.740143 -15.892395c2.2515564 0 3.444458 11.78653 4.769043 15.892395c1.324585 4.1058655 1.1915894 8.6102295 3.1784668 8.742798c1.9868774 0.13253784 5.8289795 -5.695984 8.742798 -7.94751c2.9138184 -2.2515259 7.2834473 -4.634735 8.740143 -5.561676" fill-rule="evenodd"/><path stroke="#000000" stroke-width="1.0" stroke-linejoin="round" stroke-linecap="butt" d="m421.9895 316.74408c2.9142456 -0.5297241 13.114624 0 17.485565 -3.1784668c4.370941 -3.1784668 6.488617 -15.892395 8.740143 -15.892395c2.2515564 0 3.444458 11.78653 4.769043 15.892395c1.324585 4.1058655 1.1915894 8.6102295 3.1784668 8.742798c1.9868774 0.13253784 5.8289795 -5.695984 8.742798 -7.94751c2.9138184 -2.2515259 7.2834473 -4.634735 8.740143 -5.561676" fill-rule="evenodd"/><path fill="#efefef" d="m397.4567 379.6496l135.08664 0l0 65.95276l-135.08664 0z" fill-rule="evenodd"/><path stroke="#000000" stroke-width="1.0" stroke-linejoin="round" stroke-linecap="butt" d="m397.4567 379.6496l135.08664 0l0 65.95276l-135.08664 0z" fill-rule="evenodd"/><path fill="#000000" fill-opacity="0.0" d="m415.7349 390.7756l0 38.929108" fill-rule="evenodd"/><path stroke="#000000" stroke-width="1.0" stroke-linejoin="round" stroke-linecap="butt" d="m415.7349 390.7756l0 38.929108" fill-rule="evenodd"/><path fill="#000000" fill-opacity="0.0" d="m415.7349 429.7047l66.74017 0" fill-rule="evenodd"/><path stroke="#000000" stroke-width="1.0" stroke-linejoin="round" stroke-linecap="butt" d="m415.7349 429.7047l66.74017 0" fill-rule="evenodd"/><path fill="#000000" fill-opacity="0.0" d="m421.9895 417.00656c2.9142456 -0.52975464 13.114624 0 17.485565 -3.1784668c4.370941 -3.1784973 6.488617 -15.892395 8.740143 -15.892395c2.2515564 0 3.444458 11.78653 4.769043 15.892395c1.324585 4.1058655 1.1915894 8.6102295 3.1784668 8.742767c1.9868774 0.13253784 5.8289795 -5.695984 8.742798 -7.94751c2.9138184 -2.2515259 7.2834473 -4.634735 8.740143 -5.561676" fill-rule="evenodd"/><path stroke="#000000" stroke-width="1.0" stroke-linejoin="round" stroke-linecap="butt" d="m421.9895 417.00656c2.9142456 -0.52975464 13.114624 0 17.485565 -3.1784668c4.370941 -3.1784973 6.488617 -15.892395 8.740143 -15.892395c2.2515564 0 3.444458 11.78653 4.769043 15.892395c1.324585 4.1058655 1.1915894 8.6102295 3.1784668 8.742767c1.9868774 0.13253784 5.8289795 -5.695984 8.742798 -7.94751c2.9138184 -2.2515259 7.2834473 -4.634735 8.740143 -5.561676" fill-rule="evenodd"/><path fill="#fff2cc" d="m115.2336 87.60761l85.03937 0l0 62.77166l-85.03937 0z" fill-rule="evenodd"/><path stroke="#000000" stroke-width="1.0" stroke-linejoin="round" stroke-linecap="butt" d="m115.2336 87.60761l85.03937 0l0 62.77166l-85.03937 0z" fill-rule="evenodd"/><path fill="#000000" d="m160.11229 124.72594q-0.921875 0.765625 -1.765625 1.09375q-0.828125 0.3125 -1.796875 0.3125q-1.59375 0 -2.453125 -0.78125q-0.859375 -0.78125 -0.859375 -1.984375q0 -0.71875 0.328125 -1.296875q0.328125 -0.59375 0.84375 -0.9375q0.53125 -0.359375 1.1875 -0.546875q0.46875 -0.125 1.453125 -0.25q1.984375 -0.234375 2.921875 -0.5625q0.015625 -0.34375 0.015625 -0.421875q0 -1.0 -0.46875 -1.421875q-0.625 -0.546875 -1.875 -0.546875q-1.15625 0 -1.703125 0.40625q-0.546875 0.40625 -0.8125 1.421875l-1.609375 -0.21875q0.21875 -1.015625 0.71875 -1.640625q0.5 -0.640625 1.453125 -0.984375q0.953125 -0.34375 2.1875 -0.34375q1.25 0 2.015625 0.296875q0.78125 0.28125 1.140625 0.734375q0.375 0.4375 0.515625 1.109375q0.078125 0.421875 0.078125 1.515625l0 2.1875q0 2.28125 0.109375 2.890625q0.109375 0.59375 0.40625 1.15625l-1.703125 0q-0.265625 -0.515625 -0.328125 -1.1875zm-0.140625 -3.671875q-0.890625 0.375 -2.671875 0.625q-1.015625 0.140625 -1.4375 0.328125q-0.421875 0.1875 -0.65625 0.53125q-0.21875 0.34375 -0.21875 0.78125q0 0.65625 0.5 1.09375q0.5 0.4375 1.453125 0.4375q0.9375 0 1.671875 -0.40625q0.75 -0.421875 1.09375 -1.140625q0.265625 -0.5625 0.265625 -1.640625l0 -0.609375z" fill-rule="nonzero"/><path fill="#fff2cc" d="m115.2336 180.71654l85.03937 0l0 62.771652l-85.03937 0z" fill-rule="evenodd"/><path stroke="#000000" stroke-width="1.0" stroke-linejoin="round" stroke-linecap="butt" d="m115.2336 180.71654l85.03937 0l0 62.771652l-85.03937 0z" fill-rule="evenodd"/><path fill="#000000" d="m155.29979 219.02235l-1.515625 0l0 -13.359375l1.640625 0l0 4.765625q1.046875 -1.296875 2.65625 -1.296875q0.890625 0 1.6875 0.359375q0.796875 0.359375 1.3125 1.015625q0.515625 0.640625 0.796875 1.5625q0.296875 0.921875 0.296875 1.96875q0 2.484375 -1.234375 3.84375q-1.21875 1.359375 -2.953125 1.359375q-1.703125 0 -2.6875 -1.4375l0 1.21875zm-0.015625 -4.90625q0 1.734375 0.484375 2.515625q0.765625 1.265625 2.09375 1.265625q1.078125 0 1.859375 -0.9375q0.78125 -0.9375 0.78125 -2.78125q0 -1.890625 -0.75 -2.796875q-0.75 -0.90625 -1.828125 -0.90625q-1.0625 0 -1.859375 0.9375q-0.78125 0.9375 -0.78125 2.703125z" fill-rule="nonzero"/><path fill="#fff2cc" d="m115.2336 280.97638l85.03937 0l0 62.771637l-85.03937 0z" fill-rule="evenodd"/><path stroke="#000000" stroke-width="1.0" stroke-linejoin="round" stroke-linecap="butt" d="m115.2336 280.97638l85.03937 0l0 62.771637l-85.03937 0z" fill-rule="evenodd"/><path fill="#000000" d="m155.29979 319.2822l-1.515625 0l0 -13.359375l1.640625 0l0 4.765625q1.046875 -1.296875 2.65625 -1.296875q0.890625 0 1.6875 0.359375q0.796875 0.359375 1.3125 1.015625q0.515625 0.640625 0.796875 1.5625q0.296875 0.921875 0.296875 1.96875q0 2.484375 -1.234375 3.84375q-1.21875 1.359375 -2.953125 1.359375q-1.703125 0 -2.6875 -1.4375l0 1.21875zm-0.015625 -4.90625q0 1.734375 0.484375 2.515625q0.765625 1.265625 2.09375 1.265625q1.078125 0 1.859375 -0.9375q0.78125 -0.9375 0.78125 -2.78125q0 -1.890625 -0.75 -2.796875q-0.75 -0.90625 -1.828125 -0.90625q-1.0625 0 -1.859375 0.9375q-0.78125 0.9375 -0.78125 2.703125z" fill-rule="nonzero"/><path fill="#fff2cc" d="m115.2336 382.64304l85.03937 0l0 62.771667l-85.03937 0z" fill-rule="evenodd"/><path stroke="#000000" stroke-width="1.0" stroke-linejoin="round" stroke-linecap="butt" d="m115.2336 382.64304l85.03937 0l0 62.771667l-85.03937 0z" fill-rule="evenodd"/><path fill="#000000" d="m160.6361 417.402l1.609375 0.21875q-0.265625 1.65625 -1.359375 2.609375q-1.078125 0.9375 -2.671875 0.9375q-1.984375 0 -3.1875 -1.296875q-1.203125 -1.296875 -1.203125 -3.71875q0 -1.578125 0.515625 -2.75q0.515625 -1.171875 1.578125 -1.75q1.0625 -0.59375 2.3125 -0.59375q1.578125 0 2.578125 0.796875q1.0 0.796875 1.28125 2.265625l-1.59375 0.234375q-0.234375 -0.96875 -0.8125 -1.453125q-0.578125 -0.5 -1.390625 -0.5q-1.234375 0 -2.015625 0.890625q-0.78125 0.890625 -0.78125 2.8125q0 1.953125 0.75 2.84375q0.75 0.875 1.953125 0.875q0.96875 0 1.609375 -0.59375q0.65625 -0.59375 0.828125 -1.828125z" fill-rule="nonzero"/></g></svg>