<svg version="1.1" viewBox="0.0 0.0 454.03674540682414 375.73490813648294" fill="none" stroke="none" stroke-linecap="square" stroke-miterlimit="10" xmlns:xlink="http://www.w3.org/1999/xlink" xmlns="http://www.w3.org/2000/svg"><clipPath id="p.0"><path d="m0 0l454.03674 0l0 375.7349l-454.03674 0l0 -375.7349z" clip-rule="nonzero"/></clipPath><g clip-path="url(#p.0)"><path fill="#000000" fill-opacity="0.0" d="m0 0l454.03674 0l0 375.7349l-454.03674 0z" fill-rule="evenodd"/><path fill="#cfe2f3" d="m0 -0.001312336l452.56693 0l0 77.07087l-452.56693 0z" fill-rule="evenodd"/><path stroke="#000000" stroke-width="1.0" stroke-linejoin="round" stroke-linecap="butt" d="m0 -0.001312336l452.56693 0l0 77.07087l-452.56693 0z" fill-rule="evenodd"/><path fill="#cfe2f3" d="m0 93.29921l452.56693 0l0 77.07086l-452.56693 0z" fill-rule="evenodd"/><path stroke="#000000" stroke-width="1.0" stroke-linejoin="round" stroke-linecap="butt" d="m0 93.29921l452.56693 0l0 77.07086l-452.56693 0z" fill-rule="evenodd"/><path fill="#cfe2f3" d="m0 194.9672l452.56693 0l0 77.07086l-452.56693 0z" fill-rule="evenodd"/><path stroke="#000000" stroke-width="1.0" stroke-linejoin="round" stroke-linecap="butt" d="m0 194.9672l452.56693 0l0 77.07086l-452.56693 0z" fill-rule="evenodd"/><path fill="#cfe2f3" d="m0 296.63385l452.56693 0l0 77.07086l-452.56693 0z" fill-rule="evenodd"/><path stroke="#000000" stroke-width="1.0" stroke-linejoin="round" stroke-linecap="butt" d="m0 296.63385l452.56693 0l0 77.07086l-452.56693 0z" fill-rule="evenodd"/><path fill="#efefef" d="m126.74278 5.5603676l135.08662 0l0 65.95276l-135.08662 0z" fill-rule="evenodd"/><path stroke="#000000" stroke-width="1.0" stroke-linejoin="round" stroke-linecap="butt" d="m126.74278 5.5603676l135.08662 0l0 65.95276l-135.08662 0z" fill-rule="evenodd"/><path fill="#000000" fill-opacity="0.0" d="m145.021 16.686352l0 38.929134" fill-rule="evenodd"/><path stroke="#000000" stroke-width="1.0" stroke-linejoin="round" stroke-linecap="butt" d="m145.021 16.686352l0 38.929134" fill-rule="evenodd"/><path fill="#000000" fill-opacity="0.0" d="m145.021 55.615486l66.74016 0" fill-rule="evenodd"/><path stroke="#000000" stroke-width="1.0" stroke-linejoin="round" stroke-linecap="butt" d="m145.021 55.615486l66.74016 0" fill-rule="evenodd"/><path fill="#000000" fill-opacity="0.0" d="m150.5853 46.886154c0.9269562 -3.973751 3.9724426 -23.444881 5.5616913 -23.84252c1.5892334 -0.3976364 1.7222137 19.734907 3.9737396 21.456694c2.2515411 1.7217865 5.694229 -10.06649 9.535446 -11.125984c3.8412018 -1.059494 10.332886 2.782154 13.51181 4.7690277c3.1789093 1.9868774 2.118103 8.344269 5.561676 7.152233c3.443573 -1.1920395 12.583115 -11.920387 15.099731 -14.304462" fill-rule="evenodd"/><path stroke="#000000" stroke-width="1.0" stroke-linejoin="round" stroke-linecap="butt" d="m150.5853 46.886154c0.9269562 -3.973751 3.9724426 -23.444881 5.5616913 -23.84252c1.5892334 -0.3976364 1.7222137 19.734907 3.9737396 21.456694c2.2515411 1.7217865 5.694229 -10.06649 9.535446 -11.125984c3.8412018 -1.059494 10.332886 2.782154 13.51181 4.7690277c3.1789093 1.9868774 2.118103 8.344269 5.561676 7.152233c3.443573 -1.1920395 12.583115 -11.920387 15.099731 -14.304462" fill-rule="evenodd"/><path fill="#efefef" d="m300.99475 5.5603676l135.08661 0l0 65.95276l-135.08661 0z" fill-rule="evenodd"/><path stroke="#000000" stroke-width="1.0" stroke-linejoin="round" stroke-linecap="butt" d="m300.99475 5.5603676l135.08661 0l0 65.95276l-135.08661 0z" fill-rule="evenodd"/><path fill="#000000" fill-opacity="0.0" d="m319.27298 16.686352l0 38.929134" fill-rule="evenodd"/><path stroke="#000000" stroke-width="1.0" stroke-linejoin="round" stroke-linecap="butt" d="m319.27298 16.686352l0 38.929134" fill-rule="evenodd"/><path fill="#000000" fill-opacity="0.0" d="m319.27298 55.615486l66.74014 0" fill-rule="evenodd"/><path stroke="#000000" stroke-width="1.0" stroke-linejoin="round" stroke-linecap="butt" d="m319.27298 55.615486l66.74014 0" fill-rule="evenodd"/><path fill="#000000" fill-opacity="0.0" d="m325.52756 42.917324c2.9142761 -0.529747 13.114624 0 17.485565 -3.1784782c4.370941 -3.1784782 6.488617 -15.892389 8.740173 -15.892389c2.2515259 0 3.4444275 11.786528 4.7690125 15.892389c1.324585 4.1058617 1.1915894 8.610237 3.1784668 8.742783c1.9868774 0.13254547 5.8289795 -5.6959763 8.742798 -7.947506c2.9138184 -2.2515335 7.2834473 -4.634735 8.740143 -5.56168" fill-rule="evenodd"/><path stroke="#000000" stroke-width="1.0" stroke-linejoin="round" stroke-linecap="butt" d="m325.52756 42.917324c2.9142761 -0.529747 13.114624 0 17.485565 -3.1784782c4.370941 -3.1784782 6.488617 -15.892389 8.740173 -15.892389c2.2515259 0 3.4444275 11.786528 4.7690125 15.892389c1.324585 4.1058617 1.1915894 8.610237 3.1784668 8.742783c1.9868774 0.13254547 5.8289795 -5.6959763 8.742798 -7.947506c2.9138184 -2.2515335 7.2834473 -4.634735 8.740143 -5.56168" fill-rule="evenodd"/><path fill="#efefef" d="m126.74278 100.26509l135.08662 0l0 65.95276l-135.08662 0z" fill-rule="evenodd"/><path stroke="#000000" stroke-width="1.0" stroke-linejoin="round" stroke-linecap="butt" d="m126.74278 100.26509l135.08662 0l0 65.95276l-135.08662 0z" fill-rule="evenodd"/><path fill="#000000" fill-opacity="0.0" d="m145.021 111.391075l0 38.92913" fill-rule="evenodd"/><path stroke="#000000" stroke-width="1.0" stroke-linejoin="round" stroke-linecap="butt" d="m145.021 111.391075l0 38.92913" fill-rule="evenodd"/><path fill="#000000" fill-opacity="0.0" d="m145.021 150.3202l66.74016 0" fill-rule="evenodd"/><path stroke="#000000" stroke-width="1.0" stroke-linejoin="round" stroke-linecap="butt" d="m145.021 150.3202l66.74016 0" fill-rule="evenodd"/><path fill="#000000" fill-opacity="0.0" d="m150.5853 141.59088c0.9269562 -3.973755 3.9724426 -23.444885 5.5616913 -23.842522c1.5892334 -0.3976364 1.7222137 19.734901 3.9737396 21.456688c2.2515411 1.7217865 5.694229 -10.066483 9.535446 -11.125977c3.8412018 -1.059494 10.332886 2.7821503 13.51181 4.7690277c3.1789093 1.9868774 2.118103 8.344269 5.561676 7.152237c3.443573 -1.1920471 12.583115 -11.920395 15.099731 -14.304466" fill-rule="evenodd"/><path stroke="#000000" stroke-width="1.0" stroke-linejoin="round" stroke-linecap="butt" d="m150.5853 141.59088c0.9269562 -3.973755 3.9724426 -23.444885 5.5616913 -23.842522c1.5892334 -0.3976364 1.7222137 19.734901 3.9737396 21.456688c2.2515411 1.7217865 5.694229 -10.066483 9.535446 -11.125977c3.8412018 -1.059494 10.332886 2.7821503 13.51181 4.7690277c3.1789093 1.9868774 2.118103 8.344269 5.561676 7.152237c3.443573 -1.1920471 12.583115 -11.920395 15.099731 -14.304466" fill-rule="evenodd"/><path fill="#efefef" d="m126.74278 200.52756l135.08662 0l0 65.95276l-135.08662 0z" fill-rule="evenodd"/><path stroke="#000000" stroke-width="1.0" stroke-linejoin="round" stroke-linecap="butt" d="m126.74278 200.52756l135.08662 0l0 65.95276l-135.08662 0z" fill-rule="evenodd"/><path fill="#000000" fill-opacity="0.0" d="m145.021 211.65355l0 38.929123" fill-rule="evenodd"/><path stroke="#000000" stroke-width="1.0" stroke-linejoin="round" stroke-linecap="butt" d="m145.021 211.65355l0 38.929123" fill-rule="evenodd"/><path fill="#000000" fill-opacity="0.0" d="m145.021 250.58267l66.74016 0" fill-rule="evenodd"/><path stroke="#000000" stroke-width="1.0" stroke-linejoin="round" stroke-linecap="butt" d="m145.021 250.58267l66.74016 0" fill-rule="evenodd"/><path fill="#000000" fill-opacity="0.0" d="m150.5853 241.85335c0.9269562 -3.973755 3.9724426 -23.444885 5.5616913 -23.842514c1.5892334 -0.39764404 1.7222137 19.734894 3.9737396 21.45668c2.2515411 1.7217865 5.694229 -10.066483 9.535446 -11.125977c3.8412018 -1.059494 10.332886 2.7821503 13.51181 4.7690277c3.1789093 1.9868774 2.118103 8.344269 5.561676 7.152237c3.443573 -1.1920471 12.583115 -11.920395 15.099731 -14.304474" fill-rule="evenodd"/><path stroke="#000000" stroke-width="1.0" stroke-linejoin="round" stroke-linecap="butt" d="m150.5853 241.85335c0.9269562 -3.973755 3.9724426 -23.444885 5.5616913 -23.842514c1.5892334 -0.39764404 1.7222137 19.734894 3.9737396 21.45668c2.2515411 1.7217865 5.694229 -10.066483 9.535446 -11.125977c3.8412018 -1.059494 10.332886 2.7821503 13.51181 4.7690277c3.1789093 1.9868774 2.118103 8.344269 5.561676 7.152237c3.443573 -1.1920471 12.583115 -11.920395 15.099731 -14.304474" fill-rule="evenodd"/><path fill="#efefef" d="m126.74278 300.79004l135.08662 0l0 65.95273l-135.08662 0z" fill-rule="evenodd"/><path stroke="#000000" stroke-width="1.0" stroke-linejoin="round" stroke-linecap="butt" d="m126.74278 300.79004l135.08662 0l0 65.95273l-135.08662 0z" fill-rule="evenodd"/><path fill="#000000" fill-opacity="0.0" d="m145.021 311.91602l0 38.92914" fill-rule="evenodd"/><path stroke="#000000" stroke-width="1.0" stroke-linejoin="round" stroke-linecap="butt" d="m145.021 311.91602l0 38.92914" fill-rule="evenodd"/><path fill="#000000" fill-opacity="0.0" d="m145.021 350.84515l66.74016 0" fill-rule="evenodd"/><path stroke="#000000" stroke-width="1.0" stroke-linejoin="round" stroke-linecap="butt" d="m145.021 350.84515l66.74016 0" fill-rule="evenodd"/><path fill="#000000" fill-opacity="0.0" d="m150.5853 342.1158c0.9269562 -3.973755 3.9724426 -23.444885 5.5616913 -23.84253c1.5892334 -0.39761353 1.7222137 19.734924 3.9737396 21.456696c2.2515411 1.7218018 5.694229 -10.066498 9.535446 -11.125977c3.8412018 -1.0594788 10.332886 2.7821655 13.51181 4.7690125c3.1789093 1.9868774 2.118103 8.344299 5.561676 7.152252c3.443573 -1.1920471 12.583115 -11.92038 15.099731 -14.304474" fill-rule="evenodd"/><path stroke="#000000" stroke-width="1.0" stroke-linejoin="round" stroke-linecap="butt" d="m150.5853 342.1158c0.9269562 -3.973755 3.9724426 -23.444885 5.5616913 -23.84253c1.5892334 -0.39761353 1.7222137 19.734924 3.9737396 21.456696c2.2515411 1.7218018 5.694229 -10.066498 9.535446 -11.125977c3.8412018 -1.0594788 10.332886 2.7821655 13.51181 4.7690125c3.1789093 1.9868774 2.118103 8.344299 5.561676 7.152252c3.443573 -1.1920471 12.583115 -11.92038 15.099731 -14.304474" fill-rule="evenodd"/><path fill="#efefef" d="m300.99475 100.26247l135.08661 0l0 65.95276l-135.08661 0z" fill-rule="evenodd"/><path stroke="#000000" stroke-width="1.0" stroke-linejoin="round" stroke-linecap="butt" d="m300.99475 100.26247l135.08661 0l0 65.95276l-135.08661 0z" fill-rule="evenodd"/><path fill="#000000" fill-opacity="0.0" d="m319.27298 111.38845l0 38.92913" fill-rule="evenodd"/><path stroke="#000000" stroke-width="1.0" stroke-linejoin="round" stroke-linecap="butt" d="m319.27298 111.38845l0 38.92913" fill-rule="evenodd"/><path fill="#000000" fill-opacity="0.0" d="m319.27298 150.31758l66.74014 0" fill-rule="evenodd"/><path stroke="#000000" stroke-width="1.0" stroke-linejoin="round" stroke-linecap="butt" d="m319.27298 150.31758l66.74014 0" fill-rule="evenodd"/><path fill="#000000" fill-opacity="0.0" d="m325.52756 137.61942c2.9142761 -0.5297394 13.114624 0 17.485565 -3.1784668c4.370941 -3.178482 6.488617 -15.892395 8.740173 -15.892395c2.2515259 0 3.4444275 11.78653 4.7690125 15.892395c1.324585 4.1058655 1.1915894 8.6102295 3.1784668 8.742783c1.9868774 0.13253784 5.8289795 -5.695984 8.742798 -7.94751c2.9138184 -2.2515259 7.2834473 -4.634735 8.740143 -5.561676" fill-rule="evenodd"/><path stroke="#000000" stroke-width="1.0" stroke-linejoin="round" stroke-linecap="butt" d="m325.52756 137.61942c2.9142761 -0.5297394 13.114624 0 17.485565 -3.1784668c4.370941 -3.178482 6.488617 -15.892395 8.740173 -15.892395c2.2515259 0 3.4444275 11.78653 4.7690125 15.892395c1.324585 4.1058655 1.1915894 8.6102295 3.1784668 8.742783c1.9868774 0.13253784 5.8289795 -5.695984 8.742798 -7.94751c2.9138184 -2.2515259 7.2834473 -4.634735 8.740143 -5.561676" fill-rule="evenodd"/><path fill="#efefef" d="m300.99475 200.52625l135.08661 0l0 65.95276l-135.08661 0z" fill-rule="evenodd"/><path stroke="#000000" stroke-width="1.0" stroke-linejoin="round" stroke-linecap="butt" d="m300.99475 200.52625l135.08661 0l0 65.95276l-135.08661 0z" fill-rule="evenodd"/><path fill="#000000" fill-opacity="0.0" d="m319.27298 211.65224l0 38.929123" fill-rule="evenodd"/><path stroke="#000000" stroke-width="1.0" stroke-linejoin="round" stroke-linecap="butt" d="m319.27298 211.65224l0 38.929123" fill-rule="evenodd"/><path fill="#000000" fill-opacity="0.0" d="m319.27298 250.58136l66.74014 0" fill-rule="evenodd"/><path stroke="#000000" stroke-width="1.0" stroke-linejoin="round" stroke-linecap="butt" d="m319.27298 250.58136l66.74014 0" fill-rule="evenodd"/><path fill="#000000" fill-opacity="0.0" d="m325.52756 237.88321c2.9142761 -0.52975464 13.114624 0 17.485565 -3.178482c4.370941 -3.178482 6.488617 -15.892395 8.740173 -15.892395c2.2515259 0 3.4444275 11.78653 4.7690125 15.892395c1.324585 4.1058655 1.1915894 8.6102295 3.1784668 8.742783c1.9868774 0.13253784 5.8289795 -5.695984 8.742798 -7.94751c2.9138184 -2.2515259 7.2834473 -4.634735 8.740143 -5.561676" fill-rule="evenodd"/><path stroke="#000000" stroke-width="1.0" stroke-linejoin="round" stroke-linecap="butt" d="m325.52756 237.88321c2.9142761 -0.52975464 13.114624 0 17.485565 -3.178482c4.370941 -3.178482 6.488617 -15.892395 8.740173 -15.892395c2.2515259 0 3.4444275 11.78653 4.7690125 15.892395c1.324585 4.1058655 1.1915894 8.6102295 3.1784668 8.742783c1.9868774 0.13253784 5.8289795 -5.695984 8.742798 -7.94751c2.9138184 -2.2515259 7.2834473 -4.634735 8.740143 -5.561676" fill-rule="evenodd"/><path fill="#efefef" d="m300.99475 300.78873l135.08661 0l0 65.95273l-135.08661 0z" fill-rule="evenodd"/><path stroke="#000000" stroke-width="1.0" stroke-linejoin="round" stroke-linecap="butt" d="m300.99475 300.78873l135.08661 0l0 65.95273l-135.08661 0z" fill-rule="evenodd"/><path fill="#000000" fill-opacity="0.0" d="m319.27298 311.9147l0 38.92914" fill-rule="evenodd"/><path stroke="#000000" stroke-width="1.0" stroke-linejoin="round" stroke-linecap="butt" d="m319.27298 311.9147l0 38.92914" fill-rule="evenodd"/><path fill="#000000" fill-opacity="0.0" d="m319.27298 350.84384l66.74014 0" fill-rule="evenodd"/><path stroke="#000000" stroke-width="1.0" stroke-linejoin="round" stroke-linecap="butt" d="m319.27298 350.84384l66.74014 0" fill-rule="evenodd"/><path fill="#000000" fill-opacity="0.0" d="m325.52756 338.14566c2.9142761 -0.5297241 13.114624 0 17.485565 -3.1784668c4.370941 -3.1784668 6.488617 -15.892395 8.740173 -15.892395c2.2515259 0 3.4444275 11.78653 4.7690125 15.892395c1.324585 4.1058655 1.1915894 8.6102295 3.1784668 8.742767c1.9868774 0.13256836 5.8289795 -5.6959534 8.742798 -7.9474792c2.9138184 -2.2515564 7.2834473 -4.634735 8.740143 -5.5617065" fill-rule="evenodd"/><path stroke="#000000" stroke-width="1.0" stroke-linejoin="round" stroke-linecap="butt" d="m325.52756 338.14566c2.9142761 -0.5297241 13.114624 0 17.485565 -3.1784668c4.370941 -3.1784668 6.488617 -15.892395 8.740173 -15.892395c2.2515259 0 3.4444275 11.78653 4.7690125 15.892395c1.324585 4.1058655 1.1915894 8.6102295 3.1784668 8.742767c1.9868774 0.13256836 5.8289795 -5.6959534 8.742798 -7.9474792c2.9138184 -2.2515564 7.2834473 -4.634735 8.740143 -5.5617065" fill-rule="evenodd"/><path fill="#fff2cc" d="m18.771654 8.746719l85.03937 0l0 62.771652l-85.03937 0z" fill-rule="evenodd"/><path stroke="#000000" stroke-width="1.0" stroke-linejoin="round" stroke-linecap="butt" d="m18.771654 8.746719l85.03937 0l0 62.771652l-85.03937 0z" fill-rule="evenodd"/><path fill="#000000" d="m63.650352 45.865044q-0.921875 0.765625 -1.765625 1.09375q-0.828125 0.3125 -1.796875 0.3125q-1.59375 0 -2.453125 -0.78125q-0.859375 -0.78125 -0.859375 -1.984375q0 -0.71875 0.328125 -1.296875q0.328125 -0.59375 0.84375 -0.9375q0.53125 -0.359375 1.1875 -0.546875q0.46875 -0.125 1.453125 -0.25q1.984375 -0.234375 2.921875 -0.5625q0.015625 -0.34375 0.015625 -0.421875q0 -1.0 -0.46875 -1.421875q-0.625 -0.546875 -1.875 -0.546875q-1.15625 0 -1.703125 0.40625q-0.546875 0.40625 -0.8125 1.421875l-1.609375 -0.21875q0.21875 -1.015625 0.71875 -1.640625q0.5 -0.640625 1.453125 -0.984375q0.953125 -0.34375 2.1875 -0.34375q1.25 0 2.015625 0.296875q0.78125 0.28125 1.140625 0.734375q0.375 0.4375 0.515625 1.109375q0.078125 0.421875 0.078125 1.515625l0 2.1875q0 2.28125 0.109375 2.890625q0.109375 0.59375 0.40625 1.15625l-1.703125 0q-0.265625 -0.515625 -0.328125 -1.1875zm-0.140625 -3.671875q-0.890625 0.375 -2.671875 0.625q-1.015625 0.140625 -1.4375 0.328125q-0.421875 0.1875 -0.65625 0.53125q-0.21875 0.34375 -0.21875 0.78125q0 0.65625 0.5 1.09375q0.5 0.4375 1.453125 0.4375q0.9375 0 1.671875 -0.40625q0.75 -0.421875 1.09375 -1.140625q0.265625 -0.5625 0.265625 -1.640625l0 -0.609375z" fill-rule="nonzero"/><path fill="#fff2cc" d="m18.771654 101.855644l85.03937 0l0 62.77166l-85.03937 0z" fill-rule="evenodd"/><path stroke="#000000" stroke-width="1.0" stroke-linejoin="round" stroke-linecap="butt" d="m18.771654 101.855644l85.03937 0l0 62.77166l-85.03937 0z" fill-rule="evenodd"/><path fill="#000000" d="m58.837852 140.16147l-1.515625 0l0 -13.359375l1.640625 0l0 4.765625q1.046875 -1.296875 2.65625 -1.296875q0.890625 0 1.6875 0.359375q0.796875 0.359375 1.3125 1.015625q0.515625 0.640625 0.796875 1.5625q0.296875 0.921875 0.296875 1.96875q0 2.484375 -1.234375 3.84375q-1.21875 1.359375 -2.953125 1.359375q-1.703125 0 -2.6875 -1.4375l0 1.21875zm-0.015625 -4.90625q0 1.734375 0.484375 2.515625q0.765625 1.265625 2.09375 1.265625q1.078125 0 1.859375 -0.9375q0.78125 -0.9375 0.78125 -2.78125q0 -1.890625 -0.75 -2.796875q-0.75 -0.90625 -1.828125 -0.90625q-1.0625 0 -1.859375 0.9375q-0.78125 0.9375 -0.78125 2.703125z" fill-rule="nonzero"/><path fill="#fff2cc" d="m18.771654 202.11548l85.03937 0l0 62.771667l-85.03937 0z" fill-rule="evenodd"/><path stroke="#000000" stroke-width="1.0" stroke-linejoin="round" stroke-linecap="butt" d="m18.771654 202.11548l85.03937 0l0 62.771667l-85.03937 0z" fill-rule="evenodd"/><path fill="#000000" d="m58.837852 240.42131l-1.515625 0l0 -13.359375l1.640625 0l0 4.765625q1.046875 -1.296875 2.65625 -1.296875q0.890625 0 1.6875 0.359375q0.796875 0.359375 1.3125 1.015625q0.515625 0.640625 0.796875 1.5625q0.296875 0.921875 0.296875 1.96875q0 2.484375 -1.234375 3.84375q-1.21875 1.359375 -2.953125 1.359375q-1.703125 0 -2.6875 -1.4375l0 1.21875zm-0.015625 -4.90625q0 1.734375 0.484375 2.515625q0.765625 1.265625 2.09375 1.265625q1.078125 0 1.859375 -0.9375q0.78125 -0.9375 0.78125 -2.78125q0 -1.890625 -0.75 -2.796875q-0.75 -0.90625 -1.828125 -0.90625q-1.0625 0 -1.859375 0.9375q-0.78125 0.9375 -0.78125 2.703125z" fill-rule="nonzero"/><path fill="#fff2cc" d="m18.771654 303.78217l85.03937 0l0 62.771637l-85.03937 0z" fill-rule="evenodd"/><path stroke="#000000" stroke-width="1.0" stroke-linejoin="round" stroke-linecap="butt" d="m18.771654 303.78217l85.03937 0l0 62.771637l-85.03937 0z" fill-rule="evenodd"/><path fill="#000000" d="m64.17415 338.5411l1.609375 0.21875q-0.265625 1.65625 -1.359375 2.609375q-1.078125 0.9375 -2.671875 0.9375q-1.984375 0 -3.1875 -1.296875q-1.203125 -1.296875 -1.203125 -3.71875q0 -1.578125 0.515625 -2.75q0.515625 -1.171875 1.578125 -1.75q1.0625 -0.59375 2.3125 -0.59375q1.578125 0 2.578125 0.796875q1.0 0.796875 1.28125 2.265625l-1.59375 0.234375q-0.234375 -0.96875 -0.8125 -1.453125q-0.578125 -0.5 -1.390625 -0.5q-1.234375 0 -2.015625 0.890625q-0.78125 0.890625 -0.78125 2.8125q0 1.953125 0.75 2.84375q0.75 0.875 1.953125 0.875q0.96875 0 1.609375 -0.59375q0.65625 -0.59375 0.828125 -1.828125z" fill-rule="nonzero"/></g></svg>